<svg width="94" height="32" viewBox="0 0 94 32" fill="none" xmlns="http://www.w3.org/2000/svg">
<path d="M17.9879 0L13.4472 4.59778L13.72 8.68115L15.2446 8.05774L15.3682 9.76731C15.3682 9.76731 20.3587 13.0466 20.3587 12.9841C20.3587 12.9217 20.5256 8.2165 20.5256 8.2165L18.228 7.03379L21.093 7.20364L21.4081 8.10534L21.734 8.04422L22.2568 7.35699C22.2568 7.35699 23.1409 7.33697 23.1409 7.31642C23.1409 7.29559 23.1447 5.67744 23.1447 5.67744L21.585 4.08445L24.1251 1.25871L17.9879 0ZM22.7025 8.32928L21.351 11.0017C21.351 11.0017 22.6643 13.082 22.6643 13.0983C22.6643 13.1142 22.7025 8.32928 22.7025 8.32928ZM15.7309 11.0017L14.9366 12.2877C14.9366 12.2877 10.824 14.2469 10.8032 14.2469C10.7821 14.2469 7.5766 15.2408 7.5766 15.2408C7.5766 15.2408 5.3932 19.1111 5.3932 19.0973C5.3932 19.0832 3.77586 21.4219 3.77586 21.4219L3.59546 23.1644L0.737267 27.4184L0 32H5.21929L5.93898 28.0159L8.36715 25.0858L9.28779 22.7038C9.28779 22.7038 12.2247 26.4123 12.2382 26.3986C12.2517 26.385 11.0706 32 11.0706 32H17.3017L16.6377 23.4698L19.8316 16.4046L24.6887 13.7963H20.3152L15.7309 11.0017ZM26.9876 13.7963L20.7749 17.087L17.6941 23.6585L18.3368 32H38.0693L39.1652 22.7517L34.8336 15.5086L26.9876 13.7963Z" fill="#0EF195"/>
<path d="M76.741 14.5563C76.1538 14.5563 75.6113 14.4121 75.1136 14.1236C74.616 13.835 74.213 13.3968 73.9044 12.8097C73.5961 12.2225 73.4417 11.5061 73.4417 10.6601C73.4417 9.81409 73.5961 9.09764 73.9044 8.51048C74.213 7.91331 74.616 7.4703 75.1136 7.18172C75.6113 6.88314 76.1538 6.73384 76.741 6.73384C77.3579 6.73384 77.8853 6.8734 78.3234 7.15197C78.771 7.43054 79.0796 7.7889 79.2489 8.22677L79.428 8.18188C79.3184 7.79377 79.2638 7.40566 79.2638 7.01755V4.97614V4.00195H80.5774V14.3772H79.2638V14.1682C79.2638 13.8398 79.3184 13.5064 79.428 13.168L79.2489 13.1083C79.0796 13.5461 78.7762 13.8996 78.3383 14.1682C77.9004 14.427 77.3679 14.5563 76.741 14.5563ZM77.1291 13.4369C77.8455 13.4369 78.3978 13.188 78.7862 12.6904C79.1743 12.1928 79.3682 11.5161 79.3682 10.6601C79.3682 9.80435 79.1743 9.12739 78.7862 8.62975C78.3978 8.12237 77.8455 7.86842 77.1291 7.86842H77.0095C76.2931 7.86842 75.7457 8.12237 75.3676 8.62975C74.9992 9.12739 74.815 9.80435 74.815 10.6601C74.815 11.5161 74.9992 12.1928 75.3676 12.6904C75.7457 13.188 76.2931 13.4369 77.0095 13.4369H77.1291Z" fill="black"/>
<path d="M72.2116 4.00195V14.3772H70.898V4.00195H72.2116Z" fill="black"/>
<path d="M66.1242 6.73389C66.8109 6.73389 67.4129 6.89319 67.9306 7.21178C68.448 7.52011 68.8461 7.96799 69.1249 8.55515C69.4035 9.14231 69.5428 9.829 69.5428 10.6152V10.9587H63.9746V11.0334C64.0044 11.7798 64.2183 12.3718 64.6164 12.8097C65.0145 13.2379 65.527 13.4518 66.154 13.4518H66.2438C66.7711 13.4518 67.2042 13.3025 67.5425 13.0039C67.8908 12.6953 68.1297 12.2875 68.2589 11.7798H69.6323C69.473 12.6058 69.09 13.2776 68.4829 13.795C67.8757 14.3026 67.0995 14.5563 66.154 14.5563C65.0494 14.5563 64.1837 14.2031 63.5565 13.4964C62.9396 12.79 62.631 11.8396 62.631 10.6452C62.631 9.85903 62.7754 9.17233 63.064 8.58517C63.3526 7.988 63.7607 7.53011 64.2881 7.21178C64.8155 6.89319 65.4275 6.73389 66.1242 6.73389ZM68.1545 9.86903C68.0948 9.2916 67.8857 8.80911 67.5276 8.421C67.1693 8.03263 66.7065 7.83871 66.1391 7.83871H66.0198C65.4624 7.83871 65.0045 8.03263 64.6464 8.421C64.2981 8.80911 64.0939 9.2916 64.0344 9.86903H68.1545Z" fill="black"/>
<path d="M60.6983 5.74857C60.4494 5.74857 60.2404 5.66419 60.0713 5.49488C59.902 5.32584 59.8174 5.11678 59.8174 4.86796C59.8174 4.62914 59.902 4.42495 60.0713 4.25591C60.2404 4.08661 60.4494 4.00195 60.6983 4.00195C60.9371 4.00195 61.1361 4.08661 61.2954 4.25591C61.4645 4.42495 61.5491 4.62914 61.5491 4.86796C61.5491 5.11678 61.4645 5.32584 61.2954 5.49488C61.1361 5.66419 60.9371 5.74857 60.6983 5.74857ZM61.3401 6.91316V14.3772H60.0264V6.91316H61.3401Z" fill="black"/>
<path d="M53.364 4.00195V7.04758C53.364 7.24636 53.354 7.40566 53.3342 7.5252C53.3142 7.63474 53.2744 7.7889 53.2147 7.98796L53.4089 8.04773C53.5381 7.66936 53.8267 7.3559 54.2746 7.10708C54.7225 6.85826 55.2499 6.73384 55.857 6.73384C56.5935 6.73384 57.2107 6.91803 57.7081 7.28639C58.2057 7.65448 58.4545 8.31142 58.4545 9.25694V14.3772H57.1409V9.45086C57.1409 8.90346 56.9816 8.50534 56.6633 8.25652C56.3547 7.99796 55.9268 7.86842 55.3794 7.86842H55.3494C54.7822 7.86842 54.3095 8.03285 53.9314 8.36119C53.553 8.67952 53.364 9.11739 53.364 9.6748V14.3772H52.0504V4.00195H53.364Z" fill="black"/>
<path d="M44.3356 10.7644C44.3453 11.6602 44.6041 12.3271 45.1118 12.765C45.6292 13.1929 46.2661 13.4068 47.0226 13.4068C47.4307 13.4068 47.8236 13.3373 48.2017 13.198C48.5901 13.0585 48.9036 12.8594 49.1424 12.6008C49.3812 12.342 49.5008 12.0483 49.5008 11.72C49.5008 11.3219 49.3961 11.0133 49.187 10.7945C48.988 10.5657 48.7492 10.4012 48.4706 10.3017C48.2018 10.2022 47.8537 10.1126 47.4255 10.0331L46.2312 9.7943C45.3257 9.61499 44.609 9.29667 44.0816 8.83878C43.5642 8.3809 43.3054 7.79887 43.3054 7.09216C43.3054 6.15665 43.6486 5.45509 44.3356 4.98719C45.0223 4.50957 45.8929 4.27075 46.9479 4.27075C47.7341 4.27075 48.416 4.42004 48.9931 4.71863C49.5703 5.01721 50.0181 5.41533 50.3367 5.91297C50.6551 6.41034 50.8341 6.96289 50.8741 7.56979H49.4856C49.4459 7.17168 49.3114 6.80845 49.0826 6.48012C48.8636 6.15178 48.5652 5.89296 48.1869 5.70391C47.8188 5.51486 47.4007 5.4202 46.933 5.4202C46.3058 5.4202 45.7736 5.55461 45.3357 5.82318C44.8978 6.082 44.6788 6.46011 44.6788 6.95775C44.6788 7.38588 44.8529 7.73423 45.2013 8.0028C45.5596 8.26162 46.0324 8.44581 46.6196 8.55507L47.9778 8.8239C48.9433 9.01295 49.6649 9.34129 50.1426 9.80918C50.6302 10.2768 50.8741 10.8989 50.8741 11.6751C50.8741 12.2525 50.6948 12.7599 50.3367 13.198C49.9784 13.6359 49.5056 13.9742 48.9185 14.213C48.3413 14.4419 47.7241 14.5563 47.0674 14.5563C46.301 14.5563 45.6094 14.4221 44.9922 14.1533C44.3753 13.8847 43.8825 13.4666 43.5144 12.8994C43.1561 12.332 42.9819 11.6204 42.9919 10.7644H44.3356Z" fill="black"/>
<path d="M93.7563 17.2544V27.6297H92.4427V17.2544H93.7563Z" fill="black"/>
<path d="M87.4381 19.9863C88.1646 19.9863 88.7963 20.1508 89.334 20.4791C89.8811 20.7974 90.3041 21.2504 90.6027 21.8376C90.9013 22.4248 91.0506 23.1015 91.0506 23.8677C91.0506 24.6441 90.9013 25.3308 90.6027 25.928C90.3041 26.5152 89.8811 26.9779 89.334 27.3163C88.7866 27.6446 88.1545 27.8088 87.4381 27.8088C86.7114 27.8088 86.0745 27.6446 85.5271 27.3163C84.9897 26.9779 84.5718 26.5152 84.2732 25.928C83.9846 25.3308 83.8402 24.6441 83.8402 23.8677C83.8402 23.0915 83.9846 22.4148 84.2732 21.8376C84.5718 21.2504 84.9897 20.7974 85.5271 20.4791C86.0745 20.1508 86.7114 19.9863 87.4381 19.9863ZM87.5127 26.7042C88.2192 26.7042 88.7566 26.4354 89.1249 25.898C89.493 25.3606 89.6772 24.6839 89.6772 23.8677C89.6772 23.0617 89.493 22.3999 89.1249 21.8822C88.7566 21.3548 88.2192 21.0911 87.5127 21.0911H87.3635C86.6668 21.0911 86.1342 21.3597 85.7661 21.8974C85.3978 22.4248 85.2136 23.0814 85.2136 23.8677C85.2136 24.6542 85.3929 25.3257 85.751 25.8831C86.1193 26.4305 86.6567 26.7042 87.3635 26.7042H87.5127Z" fill="black"/>
<path d="M83.1078 24.8978C83.0183 25.7538 82.68 26.4554 82.0928 27.0028C81.5156 27.5402 80.7443 27.8088 79.7788 27.8088C79.0523 27.8088 78.4205 27.6446 77.8829 27.3163C77.3555 26.9879 76.9473 26.5249 76.6588 25.928C76.3802 25.3308 76.2409 24.6441 76.2409 23.8677C76.2409 23.0915 76.3802 22.4148 76.6588 21.8376C76.9473 21.2504 77.3555 20.7974 77.8829 20.4791C78.4205 20.1508 79.0523 19.9863 79.7788 19.9863C80.6548 19.9863 81.3861 20.2154 81.9733 20.673C82.5704 21.1309 82.9537 21.8325 83.1227 22.778H81.7344C81.6249 22.2703 81.421 21.8625 81.1224 21.5539C80.8238 21.2453 80.4157 21.0911 79.8983 21.0911H79.749C79.0523 21.0911 78.5201 21.3597 78.1517 21.8974C77.7933 22.4248 77.6143 23.0814 77.6143 23.8677C77.6143 24.6639 77.7933 25.3357 78.1517 25.8831C78.5201 26.4305 79.0523 26.7042 79.749 26.7042H79.8983C80.4457 26.7042 80.8687 26.5401 81.1673 26.2115C81.4659 25.8731 81.6549 25.4352 81.7344 24.8978H83.1078Z" fill="black"/>
<path d="M71.7289 19.9863C72.4553 19.9863 73.0874 20.1508 73.6248 20.4791C74.1722 20.7974 74.5952 21.2504 74.8938 21.8376C75.1921 22.4248 75.3414 23.1015 75.3414 23.8677C75.3414 24.6441 75.1921 25.3308 74.8938 25.928C74.5952 26.5152 74.1722 26.9779 73.6248 27.3163C73.0774 27.6446 72.4453 27.8088 71.7289 27.8088C71.0024 27.8088 70.3655 27.6446 69.8181 27.3163C69.2807 26.9779 68.8626 26.5152 68.564 25.928C68.2754 25.3308 68.131 24.6441 68.131 23.8677C68.131 23.0915 68.2754 22.4148 68.564 21.8376C68.8626 21.2504 69.2807 20.7974 69.8181 20.4791C70.3655 20.1508 71.0024 19.9863 71.7289 19.9863ZM71.8035 26.7042C72.51 26.7042 73.0476 26.4354 73.4157 25.898C73.7841 25.3606 73.968 24.6839 73.968 23.8677C73.968 23.0617 73.7841 22.3999 73.4157 21.8822C73.0476 21.3548 72.51 21.0911 71.8035 21.0911H71.6542C70.9575 21.0911 70.425 21.3597 70.0569 21.8974C69.6885 22.4248 69.5046 23.0814 69.5046 23.8677C69.5046 24.6542 69.6837 25.3257 70.042 25.8831C70.4101 26.4305 70.9475 26.7042 71.6542 26.7042H71.8035Z" fill="black"/>
<path d="M67.6282 27.5847C67.3196 27.6745 67.0162 27.7191 66.7176 27.7191C66.0509 27.7191 65.573 27.5201 65.2844 27.122C64.9958 26.7239 64.8517 26.1567 64.8517 25.4203V21.2552H63.7766V20.1655H64.8517V18.0754H66.1653V20.1655H67.4938V21.2552H66.1653V25.5547C66.1653 25.873 66.2151 26.1118 66.3146 26.2711C66.4241 26.4304 66.6232 26.5099 66.9118 26.5099C67.1306 26.5099 67.3694 26.4802 67.6282 26.4204V27.5847Z" fill="black"/>
<path d="M59.8101 19.9863C60.5365 19.9863 61.1686 20.1508 61.706 20.4791C62.2534 20.7974 62.6764 21.2504 62.975 21.8376C63.2736 22.4248 63.4229 23.1015 63.4229 23.8677C63.4229 24.6441 63.2736 25.3308 62.975 25.928C62.6764 26.5152 62.2534 26.9779 61.706 27.3163C61.1586 27.6446 60.5265 27.8088 59.8101 27.8088C59.0836 27.8088 58.4467 27.6446 57.8993 27.3163C57.3619 26.9779 56.9438 26.5152 56.6452 25.928C56.3566 25.3308 56.2125 24.6441 56.2125 23.8677C56.2125 23.0915 56.3566 22.4148 56.6452 21.8376C56.9438 21.2504 57.3619 20.7974 57.8993 20.4791C58.4467 20.1508 59.0836 19.9863 59.8101 19.9863ZM59.8847 26.7042C60.5914 26.7042 61.1288 26.4354 61.4969 25.898C61.8653 25.3606 62.0495 24.6839 62.0495 23.8677C62.0495 23.0617 61.8653 22.3999 61.4969 21.8822C61.1288 21.3548 60.5914 21.0911 59.8847 21.0911H59.7354C59.0387 21.0911 58.5065 21.3597 58.1381 21.8974C57.7698 22.4248 57.5858 23.0814 57.5858 23.8677C57.5858 24.6542 57.7649 25.3257 58.1232 25.8831C58.4913 26.4305 59.0287 26.7042 59.7354 26.7042H59.8847Z" fill="black"/>
<path d="M56.0072 21.5987C55.7684 21.5587 55.5195 21.5389 55.2607 21.5389C54.7033 21.5389 54.2306 21.6931 53.8424 22.0017C53.4543 22.3002 53.2601 22.7779 53.2601 23.4348V27.6296H51.9465V20.1655H53.2601V20.4939C53.2601 20.8125 53.2055 21.1657 53.096 21.5538L53.2601 21.5987C53.4892 21.0613 53.8027 20.6881 54.2008 20.479C54.6089 20.2699 55.1312 20.1655 55.7684 20.1655H56.0221L56.0072 21.5987Z" fill="black"/>
<path d="M47.6049 17.7023C48.6994 17.7023 49.5405 17.9462 50.1277 18.4339C50.7249 18.9115 51.0235 19.6531 51.0235 20.6581C51.0235 21.6434 50.7049 22.385 50.0679 22.8826C49.441 23.38 48.6199 23.6288 47.6049 23.6288H45.0669V27.6297H43.7533V17.7023H47.6049ZM47.7839 22.4942C49.028 22.4942 49.6501 21.8822 49.6501 20.6581C49.6501 20.0312 49.4908 19.5733 49.1722 19.2847C48.8639 18.9861 48.4011 18.8368 47.7839 18.8368H45.0669V22.4942H47.7839Z" fill="black"/>
</svg>
